<svg xmlns="http://www.w3.org/2000/svg" xmlns:xlink="http://www.w3.org/1999/xlink" width="32" height="32" viewBox="0 0 32 32" fill="none">
<path d="M16.6667 1C8.19466 1 1.33333 7.86133 1.33333 16.3333C1.33333 23.1187 5.72266 28.8493 11.8173 30.88C12.584 31.0147 12.8707 30.5547 12.8707 30.152C12.8707 29.788 12.852 28.5813 12.852 27.296C8.99999 28.0053 8.00399 26.3573 7.69733 25.496C7.52399 25.0547 6.77733 23.6933 6.12399 23.3293C5.588 23.0413 4.82133 22.332 6.10533 22.3133C7.31333 22.2947 8.17599 23.4253 8.46399 23.8853C9.844 26.2053 12.048 25.552 12.9293 25.1493C13.0627 24.1533 13.4653 23.4827 13.9067 23.0987C10.4947 22.716 6.93066 21.3933 6.93066 15.528C6.93066 13.8613 7.52399 12.4813 8.50133 11.408C8.34799 11.024 7.812 9.452 8.65466 7.344C8.65466 7.344 9.93866 6.94133 12.872 8.916C14.0987 8.57067 15.4013 8.39867 16.7053 8.39867C18.008 8.39867 19.312 8.572 20.5387 8.916C23.472 6.92267 24.7547 7.344 24.7547 7.344C25.5987 9.452 25.0613 11.024 24.908 11.408C25.8853 12.4813 26.48 13.8413 26.48 15.528C26.48 21.412 22.896 22.7147 19.484 23.0987C20.04 23.5787 20.5187 24.4987 20.5187 25.936C20.5187 27.9867 20.5 29.6347 20.5 30.152C20.5 30.5547 20.788 31.0347 21.5533 30.8813C27.612 28.8493 32 23.0987 32 16.3333C32 7.86133 25.1387 1 16.6667 1Z"   fill="#000000" >
</path>
</svg>
