<svg xmlns="http://www.w3.org/2000/svg" xmlns:xlink="http://www.w3.org/1999/xlink" width="100" height="100" viewBox="0 0 100 100" fill="none">
<path d="M54.6562 54.0156L42.5312 59.8906L12.5 38.1093L12.5 69.4374L34.7656 84.3749L54.6562 84.3749L76.3281 74.5781L89.0624 38.1093L76.3281 32.4844L66.3906 38.1093L59.4375 17.7969L34.7656 10.9375L54.6562 54.0156Z" stroke="rgba(18, 57, 152, 0.13)" stroke-width="1"      fill="#3471FD" fill-opacity="0.3">
</path>
<path     fill="#04CFB4"  d="M28.1847 43.929L25.3012 73.7231L32.3509 73.7231L34.5881 43.929L43.537 43.929L41.2302 84.1804L48.0114 84.1804L50.4972 36.4968L28.1847 36.4968L13.5583 36.4968L6.25 84.1804L13.5583 84.1804L17.6847 43.929L28.1847 43.929Z">
</path>
<path fill-rule="evenodd"  fill="rgba(18, 57, 152, 1)"  d="M26.1754 43.929L17.6847 43.929L13.5583 84.1804L6.25 84.1804L13.5583 36.4968L50.4972 36.4968L50.393 38.4968L48.0114 84.1804L41.2302 84.1804L41.3448 82.1804L43.4224 45.929L43.537 43.929L34.5881 43.929L32.3509 73.7231L25.3012 73.7231L25.4947 71.7231L27.9911 45.929L28.1847 43.929L26.1754 43.929ZM25.9818 45.929L19.4901 45.929L15.3637 86.1804L3.92011 86.1804L11.8414 34.4968L52.6042 34.4968L49.9099 86.1804L39.1123 86.1804L41.4191 45.929L36.4436 45.929L34.2064 75.7231L23.0983 75.7231L25.9818 45.929Z">
</path>
<path   fill-rule="evenodd"  fill="#04CFB4"  d="M60.9391 84.375L93.7517 80.5664L93.7517 23.4375L87.7858 23.4375L87.7858 52.274L60.9391 52.274L60.9391 84.375ZM67.8994 77.3018C67.8994 77.3018 72.7486 75.1255 76.8482 75.1255C80.9479 75.1255 89.2772 77.3018 89.2772 77.3018L86.2943 59.3471C81.1934 59.3471 70.5144 59.3471 65.4136 59.3471L67.8994 77.3018Z">
</path>
<path fill-rule="evenodd"  fill="rgba(18, 57, 152, 1)"  d="M58.9391 50.274L58.9391 86.6205L61.1697 86.3616L95.7517 82.3476L95.7517 21.4375L85.7858 21.4375L85.7858 50.274L58.9391 50.274ZM85.7858 52.274L60.9391 52.274L60.9391 84.375L62.9391 84.1428L93.7517 80.5664L93.7517 23.4375L87.7858 23.4375L87.7858 52.274L85.7858 52.274ZM69.815 76.5546C68.652 76.9641 67.8994 77.3018 67.8994 77.3018L67.6143 75.2429L65.6905 61.3471L65.4136 59.3471L86.2943 59.3471L88.9187 75.144L89.2772 77.3018C89.2772 77.3018 88.4391 77.0829 87.1637 76.7838C84.4185 76.1401 79.6475 75.1255 76.8482 75.1255C74.3637 75.1255 71.6039 75.9248 69.815 76.5546ZM69.5295 74.4927Q73.3958 73.1255 76.8482 73.1255Q80.4127 73.1255 86.8053 74.6265L84.5991 61.3471L67.7096 61.3471L69.5295 74.4927Z">
</path>
</svg>
